# xmcd
#
# Track frame offsets: 
#        151
#        33873
#        53714
#        76196
#        93458
#        131534
#        156451
#        162504
#        222770
#
# Disc length: 3286 seconds
#
# Revision: 0
# Processed by: cddbd v1.5.2PL0 Copyright (c) Steve Scherf et al.
# Submitted via: ExactAudioCopy v0.95a5
#
DISCID=6f0cd409
DTITLE=Allison, Bernard -  No Mercy
DYEAR=1994
DGENRE=Blues
TTITLE0=Rock My Baby
TTITLE1=Don't Go To Sleep On Me
TTITLE2=Break'in Up Somebody' Home
TTITLE3=Change Your Way Of Living
TTITLE4=Driven Wheel
TTITLE5=Next Generation
TTITLE6=Boo Boo's Boogie
TTITLE7=Tin Pan Alley
TTITLE8=Help
EXTD=
EXTT0=
EXTT1=
EXTT2=
EXTT3=
EXTT4=
EXTT5=
EXTT6=
EXTT7=
EXTT8=
PLAYORDER=
